<svg xmlns="http://www.w3.org/2000/svg" width="1200" height="630" viewBox="0 0 1200 630">
  <defs>
    <linearGradient id="bg" x1="0" y1="0" x2="1" y2="1">
      <stop offset="0%" stop-color="#0b1020"/>
      <stop offset="100%" stop-color="#0a1a3a"/>
    </linearGradient>
    <linearGradient id="accent" x1="0" y1="0" x2="1" y2="0">
      <stop offset="0%" stop-color="#34d399"/>
      <stop offset="100%" stop-color="#10b981"/>
    </linearGradient>
    <filter id="soft" x="-20%" y="-20%" width="140%" height="140%">
      <feGaussianBlur stdDeviation="10" />
    </filter>
  </defs>
  <rect width="1200" height="630" fill="url(#bg)"/>

  <g opacity="0.15" filter="url(#soft)">
    <circle cx="260" cy="140" r="120" fill="#2563eb"/>
    <circle cx="980" cy="520" r="140" fill="#1e3a8a"/>
  </g>

  <g transform="translate(80,90)">
    <rect x="0" y="0" rx="16" ry="16" width="420" height="42" fill="#064e3b" opacity="0.4"/>
    <text x="16" y="28" font-family="Inter, Segoe UI, Arial, sans-serif" font-size="20" fill="#6ee7b7">Evidence-led. Privacy-preserving. Databricks-ready.</text>

    <text x="0" y="120" font-family="Inter, Segoe UI, Arial, sans-serif" font-weight="800" font-size="72" fill="#ffffff">AethergenAI</text>
    <text x="0" y="180" font-family="Inter, Segoe UI, Arial, sans-serif" font-weight="800" font-size="54" fill="#ffffff">Evidence-Led Synthetic Data & Models</text>

    <rect x="0" y="220" rx="10" ry="10" width="280" height="50" fill="url(#accent)"/>
    <text x="20" y="252" font-family="Inter, Segoe UI, Arial, sans-serif" font-size="22" font-weight="700" fill="#001b12">Powered by AUSPEXI</text>
  </g>

  <g transform="translate(980,70)">
    <circle cx="0" cy="0" r="36" fill="#0a2244"/>
    <path d="M-10 -6 C -10 -18 10 -20 18 -18 C 26 -16 42 -12 42 6" fill="none" stroke="#60a5fa" stroke-width="4"/>
    <path d="M-6 -8 C 0 -14 24 -14 30 -8" fill="none" stroke="#3b82f6" stroke-width="3"/>
    <path d="M 4 -18 L 4 -6" fill="none" stroke="#1e40af" stroke-width="3"/>
    <path d="M 4 6 C 8 6 24 4 30 0" fill="none" stroke="#1e3a8a" stroke-width="2"/>
  </g>
</svg>


